<svg xmlns="http://www.w3.org/2000/svg" viewBox="0 0 1440 320">
    <path fill="#0099ff" fill-opacity="0.8" d="M0,224L16,218.7C32,213,64,203,96,192C128,181,160,171,192,160C224,149,256,139,288,160C320,181,352,235,384,229.3C416,224,448,160,480,154.7C512,149,544,203,576,218.7C608,235,640,213,672,176C704,139,736,85,768,74.7C800,64,832,96,864,128C896,160,928,192,960,181.3C992,171,1024,117,1056,122.7C1088,128,1120,192,1152,234.7C1184,277,1216,299,1248,272C1280,245,1312,171,1344,122.7C1376,75,1408,53,1424,42.7L1440,32L1440,320L1424,320C1408,320,1376,320,1344,320C1312,320,1280,320,1248,320C1216,320,1184,320,1152,320C1120,320,1088,320,1056,320C1024,320,992,320,960,320C928,320,896,320,864,320C832,320,800,320,768,320C736,320,704,320,672,320C640,320,608,320,576,320C544,320,512,320,480,320C448,320,416,320,384,320C352,320,320,320,288,320C256,320,224,320,192,320C160,320,128,320,96,320C64,320,32,320,16,320L0,320Z"></path>
</svg>
