<svg width="934" height="885" viewBox="0 0 934 885" fill="none" xmlns="http://www.w3.org/2000/svg">
    <g opacity="0.5">
        <path opacity="0.5" d="M476 792C668.747 792 825 635.747 825 443C825 250.253 668.747 94 476 94C283.253 94 127 250.253 127 443C127 635.747 283.253 792 476 792Z" fill="url(#paint0_linear)"/>
    </g>
    <path d="M476.68 782.41C665.362 782.41 818.32 629.453 818.32 440.77C818.32 252.087 665.362 99.13 476.68 99.13C287.997 99.13 135.04 252.087 135.04 440.77C135.04 629.453 287.997 782.41 476.68 782.41Z" fill="#F5F5F5"/>
    <path d="M477 783.76C543.757 783.869 609.068 764.323 664.79 727.56C652.2 658.76 604.29 654.84 604.29 654.84H340.09C340.09 654.84 294.88 658.55 280.76 721.84C338.209 762.251 406.762 783.881 477 783.76Z" fill="#404040"/>
    <path d="M473.37 598.47C564.442 598.47 638.27 524.642 638.27 433.57C638.27 342.498 564.442 268.67 473.37 268.67C382.298 268.67 308.47 342.498 308.47 433.57C308.47 524.642 382.298 598.47 473.37 598.47Z" fill="#333333"/>
    <path opacity="0.1" d="M420.15 570.92H525.81V655.45C525.81 669.458 520.247 682.892 510.344 692.799C500.44 702.706 487.008 708.275 473 708.28C458.989 708.28 445.551 702.714 435.644 692.806C425.736 682.899 420.17 669.461 420.17 655.45V570.92H420.15Z" fill="black"/>
    <path d="M423.5 567H522.5C523.388 567 524.241 567.353 524.869 567.981C525.497 568.609 525.85 569.462 525.85 570.35V651.53C525.851 658.47 524.485 665.343 521.83 671.755C519.174 678.167 515.281 683.993 510.373 688.9C505.465 693.807 499.638 697.699 493.226 700.353C486.813 703.008 479.94 704.373 473 704.37C458.989 704.37 445.551 698.804 435.644 688.896C425.736 678.989 420.17 665.551 420.17 651.54V570.35C420.17 569.465 420.52 568.616 421.144 567.988C421.768 567.361 422.615 567.005 423.5 567Z" fill="#FDB797"/>
    <path opacity="0.1" d="M420.34 610.82C454.393 623.543 491.877 623.645 526 611.11V598.11H420.34V610.82Z" fill="black"/>
    <path d="M473.37 617.89C557.014 617.89 624.82 550.084 624.82 466.44C624.82 382.796 557.014 314.99 473.37 314.99C389.726 314.99 321.92 382.796 321.92 466.44C321.92 550.084 389.726 617.89 473.37 617.89Z" fill="#FDB797"/>
    <path opacity="0.1" d="M365.49 328.68C365.49 328.68 429.32 458.24 609.37 383L567.45 317.27L493.14 290.6L365.49 328.68Z" fill="black"/>
    <path d="M365.49 326.78C365.49 326.78 429.32 456.34 609.37 381.08L567.45 315.35L493.14 288.68L365.49 326.78Z" fill="#333333"/>
    <path d="M364.93 318C369.234 304.677 376.672 292.582 386.62 282.73C416.41 253.28 465.25 247.07 490.3 213.49C496.3 222.81 491.66 237.14 481.3 241.14C505.3 240.98 533.11 238.88 546.68 219.14C550.034 226.947 551.103 235.546 549.763 243.937C548.423 252.328 544.729 260.166 539.11 266.54C560.38 267.54 583.11 281.94 584.45 303.19C585.37 317.35 576.45 330.75 564.86 338.87C553.27 346.99 539.15 350.72 525.3 353.77C484.86 362.7 338.54 400.07 364.93 318Z" fill="#333333"/>
    <path d="M321.86 492.72C329.642 492.72 335.95 480.891 335.95 466.3C335.95 451.709 329.642 439.88 321.86 439.88C314.078 439.88 307.77 451.709 307.77 466.3C307.77 480.891 314.078 492.72 321.86 492.72Z" fill="#FDB797"/>
    <path d="M624.8 492.72C632.582 492.72 638.89 480.891 638.89 466.3C638.89 451.709 632.582 439.88 624.8 439.88C617.018 439.88 610.71 451.709 610.71 466.3C610.71 480.891 617.018 492.72 624.8 492.72Z" fill="#FDB797"/>
    <defs>
        <linearGradient id="paint0_linear" x1="476" y1="792" x2="476" y2="94" gradientUnits="userSpaceOnUse">
            <stop stop-color="#808080" stop-opacity="0.25"/>
            <stop offset="0.54" stop-color="#808080" stop-opacity="0.12"/>
            <stop offset="1" stop-color="#808080" stop-opacity="0.1"/>
        </linearGradient>
    </defs>
</svg>
